<?xml version="1.0"?>
<svg version="1.1" id="Layer_1" xmlns="http://www.w3.org/2000/svg" x="0" y="0" viewBox="0 0 100 100" xml:space="preserve"><path d="M50 10c-22.1 0-40 17.9-40 40 0 11 9 20 20 20s20-9 20-20 9-20 20-20 20 9 20 20c0-22.1-17.9-40-40-40z" fill="#f4e6c8"/><path d="M70 30c-11 0-20 9-20 20s-9 20-20 20-20-9-20-20c0 22.1 17.9 40 40 40s40-17.9 40-40c0-11-9-20-20-20z" fill="#e15c64"/><circle cx="30" cy="50" r="7.5" fill="#e15c64"/><circle cx="70" cy="50" r="7.5" fill="#f4e6c8"/><metadata xmlns:d="https://loading.io/stock/"><d:name>taiji</d:name><d:tags>tao,chinese,korea,harmony,symmetry,unite,concord,unison,taiji,spinner</d:tags><d:license>pro</d:license><d:slug>ku66sf</d:slug></metadata></svg>